# xmcd
#
# Track frame offsets:
#	150
#	13478
#	29375
#	45088
#	58475
#	73623
#	91673
#	106043
#	117500
#
# Disc length: 1782
#
# Revision: 2
# Processed by: cddbd v1.5.1PL0 Copyright (c) Steve Scherf et al.
# Submitted via: uFREEDB 1.6.0
# Normalized: r0:TDELIM( - ),TSWAP
#
DISCID=7206f409
DTITLE=Various Artist - CDX Vol 12B
DYEAR=1991
DGENRE=Country
TTITLE0=The Forester Sisters - Let Not Your Be Troubled
TTITLE1=Emmylou Harris - The Death Of Hank Williams
TTITLE2=Tim Ryan - Seventh Direction
TTITLE3=Little Texas - Some Guys Have All The Love
TTITLE4=Alan Jackson - Some Day
TTITLE5=Suzy Bogguss - Somebody Soon
TTITLE6=Bob Crosby - Still Burnin' For You
TTITLE7=The Statler Brothers - There's Still Times
TTITLE8=George Jones - You Couldn't Get The Picture
EXTD=
EXTT0=
EXTT1=
EXTT2=
EXTT3=
EXTT4=
EXTT5=
EXTT6=
EXTT7=
EXTT8=
PLAYORDER=
